<?xml version="1.0" encoding="UTF-8"?>
<svg xmlns="http://www.w3.org/2000/svg" version="1.1" viewBox="0 0 796 215.9">
  <defs>
    <style>
      .cls-1 {
        fill: #a83d72;
      }

      .cls-1, .cls-2, .cls-3, .cls-4, .cls-5, .cls-6, .cls-7 {
        stroke-width: 0px;
      }

      .cls-1, .cls-8, .cls-5, .cls-7 {
        isolation: isolate;
      }

      .cls-1, .cls-5, .cls-7 {
        mix-blend-mode: multiply;
      }

      .cls-2 {
        fill: #000;
      }

      .cls-3 {
        fill: #ff9e18;
      }

      .cls-4 {
        fill: #34657f;
      }

      .cls-5 {
        fill: #ff9e1b;
      }

      .cls-6 {
        fill: #00add9;
      }

      .cls-7 {
        fill: #ff6a13;
      }
    </style>
  </defs>
  <g class="cls-8">
    <g id="Layer_1" data-name="Layer 1">
      <g class="cls-8">
        <g id="Layer_2" data-name="Layer 2">
          <path class="cls-3" d="M106.4,877.3"/>
        </g>
      </g>
      <g>
        <path class="cls-2" d="M779.1,158.1c5.5,0,8.9-1.6,11.3-3.9l-2.8-7c-1.3,1.4-3.8,2.5-6.4,2.5-4.1,0-6.2-3.3-6.2-7.8v-37.7h12.3v-8.3h-12.3v-16.6h-9.4v16.6h-10v8.3h10v39.7c0,9,4.5,14.2,13.4,14.2M729.6,156.6v-42.9c2.8-4.9,10.7-9.7,16.5-9.7s2.6,0,3.8.4v-9.7c-8.3,0-15.3,4.6-20.2,11.1v-9.8h-9.4v60.7h9.4,0ZM677.3,149.7c-12.9,0-20.2-11.1-20.2-23.5s7.3-23.4,20.2-23.4,20.1,11.1,20.1,23.4-7.2,23.5-20.1,23.5M677.3,158.1c18.5,0,30-14.3,30-31.9s-11.5-31.8-30-31.8-30,14.2-30,31.8,11.5,31.9,30,31.9M627.6,126.2c0,13.4-7.3,23.5-19.5,23.5s-14.8-4.5-18.1-9.8v-27.4c3.3-5.3,10.7-9.7,18.1-9.7,12.2,0,19.5,9.9,19.5,23.4M590,147.4c4.9,6.8,12.2,10.7,20.5,10.7,16,0,27-12.3,27-31.9s-11-31.8-27-31.8-16.1,4.4-20.5,10.6v-9h-9.4v83.7h9.4v-32.3h0ZM519.6,148.6c6.2,6.5,14.6,9.5,24.5,9.5,15.7,0,23.9-8.2,23.9-18.3s-12.2-16.4-22.7-18.8c-7.9-1.9-14.8-3.8-14.8-9.7s5.2-9.2,13.4-9.2,14.4,3.3,18.1,7.7l4.4-6.5c-4.9-4.9-12.2-8.8-22.5-8.8s-22.6,8-22.6,17.4,11.7,15.3,22,17.7c8.2,2,15.6,4.1,15.6,10.8s-5,10.1-14.3,10.1-16-4-20-8.7l-4.9,6.8h-.1ZM463.4,148.6c6.2,6.5,14.6,9.5,24.5,9.5,15.7,0,23.9-8.2,23.9-18.3s-12.2-16.4-22.7-18.8c-7.9-1.9-14.8-3.8-14.8-9.7s5.2-9.2,13.4-9.2,14.4,3.3,18.1,7.7l4.4-6.5c-4.9-4.9-12.2-8.8-22.5-8.8s-22.6,8-22.6,17.4,11.7,15.3,22,17.7c8.2,2,15.6,4.1,15.6,10.8s-5,10.1-14.3,10.1-16-4-20-8.7l-4.9,6.8h-.1ZM442.8,143.8c-3.6,5-10,7.5-16.7,7.5s-14.9-5.5-14.9-13.2,6.2-13.3,14.9-13.3,13.1,2.5,16.7,7.5v11.4h0ZM452.2,156.6v-41.7c0-14.7-10.7-20.5-23.5-20.5s-17.7,3.3-24.2,10l4.4,6.5c5.4-5.8,11.3-8.4,18.6-8.4s15.3,4.6,15.3,12.8v10.9c-4.9-5.6-11.8-8.3-20.1-8.3s-21.2,6.4-21.2,20,10.9,20.1,21.2,20.1,15.1-2.9,20.1-8.4v6.9h9.4ZM387.5,98.1c0,9.4-6.8,15.9-16.7,15.9h-22v-31.9h22c9.9,0,16.7,6.5,16.7,15.9M348.8,156.6v-33.3h23.2c16.6,0,26.2-11.6,26.2-25.2s-9.4-25.2-26.2-25.2h-33.6v83.8h10.4Z"/>
        <path class="cls-6" d="M158.8,121h125c1.4,0,2.5-1.1,2.4-2.5-.1-6.4-1.2-24.3-7.6-43.6-.4-1.3-1.9-2-3.2-1.5l-117.5,42.8c-2.6.9-1.9,4.7.8,4.7"/>
        <path class="cls-6" d="M125.4,116.7l106.8-38.8c1.3-.5,2-1.9,1.4-3.2-2.8-6.7-12-26.2-29.7-43C183.2,12.1,161,3.9,144.8,0c-1.4-.3-2.7.6-3,2l-19.7,111.8c-.3,1.9,1.5,3.4,3.2,2.7"/>
        <path class="cls-4" d="M121.1,131.7h80.4c1.4,0,2.5,1.2,2.4,2.6-.7,8.8-5,38.3-32.1,61,0,0-25.7,23.7-64.9,20.3-1.4-.1-2.4-1.5-2.2-2.9l14-79.1c.2-1.2,1.2-2,2.4-2"/>
        <path class="cls-1" d="M106.9,138.7l-9.5,53.5c-.2,1.4-1.7,2.3-3,1.9-7.7-2.1-30.5-10.4-43.1-36.2-.6-1.3,0-2.9,1.4-3.3l51-18.6c1.8-.6,3.6.9,3.2,2.7"/>
        <path class="cls-7" d="M100,125.9l-86.9,31.7c-1.3.5-2.8-.2-3.2-1.6-2-6.8-6.7-26.7-3-47.9,4.1-23.3,14.7-38.7,19.5-45.3.8-1.1,2.5-1.3,3.5-.4l70.7,59.4c1.4,1.2,1,3.5-.7,4.2"/>
        <path class="cls-5" d="M107.6,113.6l-54.4-45.7c-1.1-.9-1.2-2.6-.2-3.6,4.4-4.4,16.2-15.1,32-20.6,16.6-5.8,30.9-5.1,36.9-4.5,1.4,0,2.4,1.5,2.1,2.9l-12.5,70c-.3,1.9-2.5,2.6-4,1.4"/>
      </g>
    </g>
  </g>
</svg>